<?xml version="1.0" encoding="UTF-8"?><svg xmlns="http://www.w3.org/2000/svg" xmlns:xlink="http://www.w3.org/1999/xlink" height="64.0" preserveAspectRatio="xMidYMid meet" version="1.0" viewBox="-0.3 -0.0 64.3 64.0" width="64.3" zoomAndPan="magnify">
 <defs>
  <linearGradient gradientUnits="userSpaceOnUse" id="A" x1="116.63" x2="116.63" xlink:actuate="onLoad" xlink:show="other" xlink:type="simple" xmlns:xlink="http://www.w3.org/1999/xlink" y1="-173" y2="60">
   <stop offset="0" stop-color="#111d2e"/>
   <stop offset=".212" stop-color="#051839"/>
   <stop offset=".407" stop-color="#0a1b48"/>
   <stop offset=".581" stop-color="#132e62"/>
   <stop offset=".738" stop-color="#144b7e"/>
   <stop offset=".873" stop-color="#136497"/>
   <stop offset="1" stop-color="#1387b8"/>
  </linearGradient>
 </defs>
 <path d="m4.89-23c14.393 48 58.916 83 111.6 83 64.35 0 116.51-52.16 116.51-116.5s-52.16-116.5-116.5-116.5c-61.74 0-112.26 48.03-116.25 108.76 7.55 12.66 10.482 20.49 4.642 41.24z" fill="url(#A)" transform="matrix(.27468 0 0 .27468 -.020737 47.519)"/>
 <g id="change1_1"><path d="m30.33 23.985l0.003 0.158-7.83 11.375c-1.268-0.058-2.54 0.165-3.748 0.662-0.532 0.217-1.03 0.483-1.498 0.79l-17.195-7.077s-0.398 6.546 1.26 11.424l12.156 5.016c0.6 2.728 2.48 5.12 5.242 6.27a8.88 8.88 0 0 0 11.603 -4.782c0.49-1.18 0.717-2.42 0.684-3.656l11.203-8.005 0.275 0.005c6.705 0 12.155-5.466 12.155-12.18a12.18 12.18 0 0 0 -12.155 -12.174c-6.702 0-12.155 5.46-12.155 12.174zm-1.88 23.05c-1.454 3.49-5.466 5.147-8.953 3.694-1.61-0.67-2.823-1.898-3.524-3.362l3.957 1.64a5.04 5.04 0 0 0 6.591 -2.719 5.05 5.05 0 0 0 -2.715 -6.601l-4.1-1.695c1.578-0.6 3.372-0.62 5.05 0.077 1.7 0.703 3 2.027 3.696 3.72s0.692 3.56-0.01 5.246m14.044-14.935c-4.464 0-8.098-3.64-8.098-8.113a8.12 8.12 0 0 1 8.098 -8.111 8.12 8.12 0 0 1 8.1 8.111 8.12 8.12 0 0 1 -8.1 8.113m-6.068-8.126c0-3.366 2.725-6.095 6.08-6.095s6.084 2.73 6.084 6.095a6.09 6.09 0 0 1 -6.084 6.093 6.09 6.09 0 0 1 -6.081 -6.093z" fill="#fff"/></g>
</svg>